<?xml version="1.0" encoding="iso-8859-1"?>
<!-- Generator: Adobe Illustrator 19.0.0, SVG Export Plug-In . SVG Version: 6.00 Build 0)  -->
<svg version="1.1" id="Capa_1" xmlns="http://www.w3.org/2000/svg" xmlns:xlink="http://www.w3.org/1999/xlink" x="0px" y="0px"
	 viewBox="0 0 512 512" style="enable-background:new 0 0 512 512;" xml:space="preserve">
<g>
	<path style="fill:#FFE082;" d="M451.888,391.68c-2.752,0-5.504-0.672-8.032-2.144c-7.648-4.448-10.24-14.24-5.824-21.888
		c19.744-33.92,30.176-72.544,30.176-111.648c0-13.568-1.184-26.88-3.552-39.648c-1.632-8.672,4.096-17.024,12.768-18.656
		c8.768-1.568,17.024,4.096,18.656,12.8c2.752,14.688,4.128,29.984,4.128,45.504c0,44.736-11.936,88.896-34.464,127.712
		C462.768,388.832,457.392,391.68,451.888,391.68z"/>
	<path style="fill:#FFE082;" d="M466.928,183.36c-6.432,0-12.512-3.904-14.944-10.272c-3.552-9.312-8.128-18.688-13.952-28.736
		c-4.448-7.648-1.824-17.408,5.824-21.856c7.584-4.416,17.408-1.888,21.888,5.824c6.688,11.52,11.968,22.464,16.128,33.344
		c3.168,8.256-0.96,17.504-9.216,20.672C470.768,183.008,468.848,183.36,466.928,183.36z"/>
	<path style="fill:#FFE082;" d="M89.648,89.28c-4.48,0-8.96-1.888-12.128-5.568c-5.76-6.688-5.024-16.8,1.696-22.56
		C124.976,21.728,183.568,0,244.208,0c8.832,0,16,7.168,16,16s-7.168,16-16,16c-52.96,0-104.128,18.976-144.128,53.408
		C97.072,88,93.36,89.28,89.648,89.28z"/>
	<path style="fill:#FFE082;" d="M36.496,152.32c-2.72,0-5.504-0.704-8.032-2.176c-7.616-4.448-10.208-14.24-5.76-21.888
		c6.752-11.616,13.632-21.6,20.992-30.592c5.6-6.848,15.68-7.84,22.528-2.208c6.816,5.6,7.808,15.68,2.208,22.528
		c-6.304,7.648-12.224,16.288-18.08,26.368C47.376,149.472,42.032,152.32,36.496,152.32z"/>
	<path style="fill:#FFE082;" d="M244.208,512c-11.904,0-23.936-0.864-36.8-2.72c-8.736-1.248-14.816-9.344-13.6-18.08
		c1.28-8.736,9.408-14.592,18.08-13.6c11.392,1.632,21.952,2.4,32.32,2.4c8.832,0,16,7.168,16,16S253.04,512,244.208,512z"/>
	<path style="fill:#FFE082;" d="M162.928,497.92c-1.824,0-3.648-0.32-5.44-0.96C100.752,476.384,52.88,436.192,22.672,383.68
		c-4.416-7.648-1.792-17.44,5.888-21.856c7.68-4.384,17.44-1.792,21.856,5.92c26.464,45.952,68.352,81.152,118.016,99.168
		c8.32,3.008,12.608,12.192,9.6,20.512C175.6,493.888,169.488,497.92,162.928,497.92z"/>
</g>
<g>
	<path style="fill:#FFECB3;" d="M419.28,288.672c-0.672,0-1.312-0.064-1.952-0.128c-8.768-1.056-15.04-9.024-13.984-17.824
		c0.576-4.8,0.864-9.632,0.864-14.72c0-7.488-0.576-15.008-1.728-22.528c-1.344-8.736,4.672-16.896,13.376-18.24
		c8.608-1.28,16.896,4.64,18.24,13.376c1.44,9.12,2.112,18.272,2.112,27.392c0,6.432-0.352,12.512-1.088,18.56
		C434.16,282.656,427.248,288.672,419.28,288.672z"/>
	<path style="fill:#FFECB3;" d="M405.168,200.96c-6.112,0-11.968-3.52-14.624-9.472c-2.304-5.216-4.896-10.4-7.808-15.328
		c-4.512-7.616-1.984-17.408,5.632-21.92c7.584-4.512,17.408-2.016,21.952,5.6c3.52,5.984,6.688,12.288,9.504,18.592
		c3.584,8.064-0.032,17.536-8.128,21.12C409.584,200.512,407.376,200.96,405.168,200.96z"/>
	<path style="fill:#FFECB3;" d="M135.44,133.76c-4.736,0-9.44-2.08-12.608-6.112c-5.44-6.944-4.256-16.992,2.688-22.464
		c10.496-8.256,21.12-15.104,31.552-20.288c7.936-3.936,17.536-0.736,21.44,7.168c3.968,7.904,0.736,17.504-7.168,21.44
		c-8.48,4.256-17.248,9.92-26.048,16.832C142.384,132.64,138.864,133.76,135.44,133.76z"/>
	<path style="fill:#FFECB3;" d="M91.888,184c-2.752,0-5.536-0.704-8.064-2.208c-7.616-4.48-10.176-14.272-5.696-21.888
		c3.584-6.112,7.232-11.904,11.936-17.664c5.504-6.88,15.584-7.904,22.464-2.336c6.848,5.536,7.904,15.616,2.336,22.496
		c-3.616,4.48-6.4,8.96-9.184,13.696C102.736,181.184,97.392,184,91.888,184z"/>
	<path style="fill:#FFECB3;" d="M244.208,448c-6.976,0-13.984-0.352-20.608-1.056c-8.768-0.928-15.136-8.832-14.176-17.632
		c0.96-8.8,9.024-15.296,17.632-14.176c5.536,0.576,11.328,0.864,17.152,0.864c8.832,0,16,7.168,16,16S253.04,448,244.208,448z"/>
	<path style="fill:#FFECB3;" d="M178.608,435.2c-1.952,0-3.936-0.352-5.856-1.12c-11.488-4.512-22.464-10.144-32.672-16.8
		c-7.392-4.832-9.472-14.752-4.64-22.144c4.832-7.36,14.752-9.44,22.144-4.672c8.384,5.472,17.408,10.112,26.88,13.888
		c8.224,3.232,12.256,12.512,9.024,20.704C191.024,431.328,184.976,435.2,178.608,435.2z"/>
</g>
<path style="fill:#FFC107;" d="M423.472,268.608c-0.256-0.064-0.48-0.16-0.672-0.224c-58.752-21.28-110.656-110.944-100.096-172.64
	c0.128-0.512,0.256-1.024,0.352-1.536c0.768-4.736,1.152-9.472,1.152-14.208c0-44.096-35.872-80-80-80c-44.096,0-80,35.904-80,80
	c0,4.704,0.384,9.44,1.184,14.144c0.096,0.608,0.224,1.216,0.416,1.824c10.432,61.888-41.792,151.776-100.704,172.64
	C33.2,279.84,11.792,310.144,11.792,344c0,44.128,35.904,80,80,80c19.072,0,37.504-6.816,51.968-19.2
	c47.872-40.832,153.024-40.896,200.896,0c14.432,12.384,32.896,19.2,51.968,19.2c44.128,0,80-35.872,80-80
	C476.624,310.208,455.248,279.936,423.472,268.608z"/>
<circle style="fill:#FFA000;" cx="244.208" cy="256" r="64"/>
<g>
</g>
<g>
</g>
<g>
</g>
<g>
</g>
<g>
</g>
<g>
</g>
<g>
</g>
<g>
</g>
<g>
</g>
<g>
</g>
<g>
</g>
<g>
</g>
<g>
</g>
<g>
</g>
<g>
</g>
</svg>
