<?xml version="1.0" encoding="iso-8859-1"?>
<!-- Generator: Adobe Illustrator 19.0.0, SVG Export Plug-In . SVG Version: 6.00 Build 0)  -->
<svg version="1.1" id="Capa_1" xmlns="http://www.w3.org/2000/svg" xmlns:xlink="http://www.w3.org/1999/xlink" x="0px" y="0px"
	 viewBox="0 0 512 512" style="enable-background:new 0 0 512 512;" xml:space="preserve">
<path style="fill:#FFD5B3;" d="M287.534,278.509l90.564-19.867c5.12-1.123,10.424-0.287,15.045,1.973
	c11.489-14.104,18.388-32.131,18.388-51.781v-56.756c0-45.173-36.43-81.795-81.372-81.795c-44.941,0-81.372,36.622-81.372,81.795
	v56.756C248.786,238.295,264.288,264.11,287.534,278.509z"/>
<path style="opacity:0.1;fill:#210035;enable-background:new    ;" d="M287.534,278.509l15.745-3.453
	c-20.381-14.857-33.638-38.978-33.638-66.223v-56.756c0-41.619,30.932-75.954,70.945-81.103c-3.417-0.44-6.892-0.691-10.428-0.691
	c-44.941,0-81.372,36.622-81.372,81.795v56.756C248.786,238.295,264.288,264.11,287.534,278.509z"/>
<g>
	<path style="fill:#A53C29;" d="M343.199,197.872c-4.142,0-7.5-3.357-7.5-7.5v-11.684c0-4.143,3.358-7.5,7.5-7.5s7.5,3.357,7.5,7.5
		v11.684C350.699,194.516,347.341,197.872,343.199,197.872z"/>
	<path style="fill:#A53C29;" d="M281.755,197.872c-4.142,0-7.5-3.357-7.5-7.5v-11.684c0-4.143,3.358-7.5,7.5-7.5s7.5,3.357,7.5,7.5
		v11.684C289.255,194.516,285.897,197.872,281.755,197.872z"/>
</g>
<g>
	<path style="fill:#D16605;" d="M320.353,219.673h-5.675c-5.807,0-10.531-4.725-10.531-10.532v-12.412c0-4.143,3.358-7.5,7.5-7.5
		s7.5,3.357,7.5,7.5v7.944h1.206c4.142,0,7.5,3.357,7.5,7.5S324.495,219.673,320.353,219.673z"/>
	<path style="fill:#D16605;" d="M331.574,258.066c-4.142,0-7.5-3.357-7.5-7.5s3.358-7.5,7.5-7.5c5.937,0,10.767-4.873,10.767-10.862
		c0-4.143,3.358-7.5,7.5-7.5s7.5,3.357,7.5,7.5C357.341,246.465,345.782,258.066,331.574,258.066z"/>
</g>
<path style="fill:#FFD5B3;" d="M87.254,208.833v-40.285c-0.938-0.098-1.89-0.149-2.854-0.149c-15.132,0-27.4,12.332-27.4,27.541
	c0,15.214,12.268,27.546,27.401,27.546c1.403,0,2.78-0.107,4.126-0.311C87.706,218.516,87.254,213.73,87.254,208.833z"/>
<path style="fill:#FFB98A;" d="M105.932,255.321l110.032,19.154c19.918-14.91,32.821-38.76,32.821-65.641v-56.756
	c0-45.173-36.433-81.795-81.373-81.795S86.04,106.905,86.04,152.077v56.756c0,17.176,5.277,33.106,14.275,46.267
	C102.183,254.947,104.067,254.995,105.932,255.321z"/>
<path style="opacity:0.1;fill:#210035;enable-background:new    ;" d="M105.932,255.321l17.667,3.075
	c-10.448-13.751-16.667-30.92-16.667-49.562v-56.756c0-41.612,30.923-75.944,70.927-81.101c-3.423-0.44-6.904-0.693-10.446-0.693
	c-44.94,0-81.372,36.622-81.372,81.795v56.756c0,17.176,5.277,33.106,14.275,46.267
	C102.183,254.947,104.067,254.995,105.932,255.321z"/>
<g>
	<rect x="86.04" y="135.23" style="fill:#A53C29;" width="23.957" height="49.42"/>
	<path style="fill:#A53C29;" d="M152.431,192.965c-4.142,0-7.5-3.357-7.5-7.5v-11.685c0-4.143,3.358-7.5,7.5-7.5s7.5,3.357,7.5,7.5
		v11.685C159.931,189.609,156.573,192.965,152.431,192.965z"/>
	<path style="fill:#A53C29;" d="M213.876,192.965c-4.142,0-7.5-3.357-7.5-7.5v-11.685c0-4.143,3.358-7.5,7.5-7.5s7.5,3.357,7.5,7.5
		v11.685C221.376,189.609,218.018,192.965,213.876,192.965z"/>
</g>
<g>
	<path style="fill:#D16605;" d="M180.951,223.01h-11.914c-4.142,0-7.5-3.357-7.5-7.5s3.358-7.5,7.5-7.5h7.446v-23.32
		c0-4.143,3.358-7.5,7.5-7.5s7.5,3.357,7.5,7.5v27.788C191.483,218.286,186.758,223.01,180.951,223.01z"/>
	<path style="fill:#D16605;" d="M164.055,261.404c-14.209,0-25.768-11.602-25.768-25.864c0-4.143,3.358-7.5,7.5-7.5
		s7.5,3.357,7.5,7.5c0,5.99,4.831,10.864,10.768,10.864c4.142,0,7.5,3.357,7.5,7.5C171.555,258.046,168.197,261.404,164.055,261.404
		z"/>
</g>
<path style="fill:#FFC554;" d="M233.84,156.251v1.686c12.717,6.503,27.095,10.192,42.338,10.192
	c51.664,0,93.543-42.101,93.543-94.028c0-2.191-0.104-4.355-0.249-6.507c-11.965-5.345-25.199-8.341-39.137-8.341
	C277.043,59.253,233.84,102.681,233.84,156.251z"/>
<path style="fill:#FB8276;" d="M463.52,448.285l-58.214-175.489c-3.661-11.032-15.905-18.033-27.208-15.553L286.673,277.3
	c-11.306,2.477-29.882,2.883-41.281,0.898l-139.46-24.277c-11.402-1.985-23.614,5.453-27.143,16.53L22.194,448.206
	c-3.528,11.077,3.055,20.138,14.624,20.138h412.32C460.709,468.344,467.18,459.316,463.52,448.285z"/>
<path style="fill:#EF5050;" d="M289.471,308.173c2.776-11.291-4.267-22.231-15.65-24.311l-167.889-29.94
	c-11.402-1.985-23.614,5.453-27.143,16.53L22.194,448.206c-3.528,11.077,3.055,20.138,14.624,20.138h213.275L289.471,308.173z"/>
<g style="opacity:0.1;">
	<path style="fill:#1B003F;" d="M54.311,448.206l56.595-177.755c1.858-5.831,6.133-10.636,11.42-13.605l-16.394-2.925
		c-11.402-1.985-23.614,5.453-27.143,16.53L22.194,448.206c-3.528,11.077,3.055,20.138,14.624,20.138h32.117
		C57.365,468.344,50.783,459.284,54.311,448.206z"/>
</g>
<g>
	<path style="fill:#FFC554;" d="M388.397,160.146v141.425c0,2.779,1.983,3.941,4.408,2.582l29.616-16.61
		c2.425-1.358,4.408-4.745,4.408-7.525V169.337c-1.304,0.074-2.615,0.119-3.938,0.119
		C410.319,169.456,398.544,166.057,388.397,160.146z"/>
	<path style="fill:#FFC554;" d="M364.743,65.629c-6.813,10.743-10.776,23.488-10.776,37.176c0,38.263,30.857,69.28,68.924,69.28
		c1.323,0,2.634-0.045,3.938-0.119v-15.716C426.829,114.868,401.039,79.561,364.743,65.629z"/>
</g>
<path style="fill:#F07C3C;" d="M253.804,157.932l0.826-21.036l13.814,3.643c0-46.96-43.406-88.669-90.123-88.669h-7.691
	c-46.717,0-84.589,38.066-84.589,85.026h31.847l42.75,15.685l2.662-18.732l37.268,20.068l3.99-17.02L253.804,157.932z"/>
<path style="fill:#E2EEFD;" d="M28.134,510.927c-8.868,0-16.619-3.719-21.262-10.204c-4.644-6.483-5.693-15.054-2.879-23.506
	l9.433-28.327c1.432-4.297,5.434-7.162,9.892-7.162c0.22,0,0.44,0.008,0.662,0.021c4.719,0.301,8.648,3.753,9.574,8.417
	c0.453,2.273,2.918,2.748,4.905,2.748h409.037c1.533,0,4.183-0.306,4.71-2.353c1.153-4.475,5.082-7.662,9.675-7.851
	c0.143-0.005,0.288-0.008,0.431-0.008c4.419,0,8.382,2.807,9.849,7.035l9.518,27.439c2.929,8.441,1.974,17.014-2.622,23.517
	c-4.595,6.505-12.333,10.232-21.226,10.232H28.134V510.927z"/>
<g style="opacity:0.1;">
	<path style="fill:#1B003F;" d="M48.849,500.723c-4.643-6.483-5.693-15.054-2.879-23.506l8.093-24.303H38.459
		c-1.987,0-4.452-0.475-4.905-2.748c-0.925-4.664-4.854-8.116-9.574-8.417c-0.222-0.014-0.442-0.021-0.662-0.021
		c-4.458,0-8.459,2.865-9.892,7.162l-9.433,28.327c-2.815,8.452-1.765,17.022,2.879,23.506c4.644,6.485,12.394,10.204,21.262,10.204
		h41.978C61.243,510.927,53.493,507.208,48.849,500.723z"/>
</g>
<g>
	<path style="fill:#FFFFFF;" d="M176.713,319.464c-4.142,0-7.5-3.357-7.5-7.5v-1.678c0-4.142,3.358-7.5,7.5-7.5s7.5,3.358,7.5,7.5
		v1.678C184.213,316.106,180.855,319.464,176.713,319.464z"/>
	<path style="fill:#FFFFFF;" d="M108.343,295.762c-4.142,0-7.5-3.357-7.5-7.5v-1.673c0-4.143,3.358-7.5,7.5-7.5s7.5,3.357,7.5,7.5
		v1.673C115.843,292.405,112.485,295.762,108.343,295.762z"/>
	<path style="fill:#FFFFFF;" d="M246.135,322.197c-4.142,0-7.5-3.357-7.5-7.5v-1.677c0-4.142,3.358-7.5,7.5-7.5s7.5,3.358,7.5,7.5
		v1.677C253.635,318.839,250.277,322.197,246.135,322.197z"/>
</g>
<g>
	<path style="fill:#FCE591;" d="M208.268,367.043c-4.142,0-7.5-3.357-7.5-7.5v-1.677c0-4.143,3.358-7.5,7.5-7.5s7.5,3.357,7.5,7.5
		v1.677C215.768,363.686,212.411,367.043,208.268,367.043z"/>
	<path style="fill:#FCE591;" d="M69.425,356.47c-4.142,0-7.5-3.357-7.5-7.5v-1.677c0-4.143,3.358-7.5,7.5-7.5s7.5,3.357,7.5,7.5
		v1.677C76.925,353.113,73.567,356.47,69.425,356.47z"/>
	<path style="fill:#FCE591;" d="M88.359,417.352c-4.142,0-7.5-3.357-7.5-7.5v-1.677c0-4.143,3.358-7.5,7.5-7.5s7.5,3.357,7.5,7.5
		v1.677C95.859,413.994,92.501,417.352,88.359,417.352z"/>
	<path style="fill:#FCE591;" d="M233.512,423.698c-4.142,0-7.5-3.357-7.5-7.5v-1.678c0-4.143,3.358-7.5,7.5-7.5s7.5,3.357,7.5,7.5
		v1.678C241.012,420.34,237.654,423.698,233.512,423.698z"/>
</g>
<g>
	<path style="fill:#FFFFFF;" d="M128.328,366.602c-4.142,0-7.5-3.357-7.5-7.5v-1.677c0-4.143,3.358-7.5,7.5-7.5s7.5,3.357,7.5,7.5
		v1.677C135.828,363.244,132.47,366.602,128.328,366.602z"/>
	<path style="fill:#FFFFFF;" d="M157.78,422.02c-4.142,0-7.5-3.357-7.5-7.5v-1.675c0-4.143,3.358-7.5,7.5-7.5s7.5,3.357,7.5,7.5
		v1.675C165.28,418.662,161.922,422.02,157.78,422.02z"/>
	<path style="fill:#FFFFFF;" d="M321.867,333.207c-4.142,0-7.5-3.357-7.5-7.5v-1.676c0-4.143,3.358-7.5,7.5-7.5s7.5,3.357,7.5,7.5
		v1.676C329.367,329.85,326.009,333.207,321.867,333.207z"/>
	<path style="fill:#FFFFFF;" d="M389.183,360.697c-4.142,0-7.5-3.357-7.5-7.5v-1.675c0-4.143,3.358-7.5,7.5-7.5s7.5,3.357,7.5,7.5
		v1.675C396.683,357.339,393.325,360.697,389.183,360.697z"/>
</g>
<g>
	<path style="fill:#FCE591;" d="M343.954,395.149c-4.142,0-7.5-3.357-7.5-7.5v-1.675c0-4.143,3.358-7.5,7.5-7.5s7.5,3.357,7.5,7.5
		v1.675C351.454,391.791,348.096,395.149,343.954,395.149z"/>
	<path style="fill:#FCE591;" d="M407.066,433.65c-4.142,0-7.5-3.357-7.5-7.5v-1.673c0-4.143,3.358-7.5,7.5-7.5s7.5,3.357,7.5,7.5
		v1.673C414.566,430.292,411.208,433.65,407.066,433.65z"/>
</g>
<path style="fill:#FFFFFF;" d="M297.675,441.053c-4.142,0-7.5-3.357-7.5-7.5v-1.677c0-4.143,3.358-7.5,7.5-7.5s7.5,3.357,7.5,7.5
	v1.677C305.175,437.697,301.817,441.053,297.675,441.053z"/>
<g>
	<path style="fill:#FFB98A;" d="M78.2,1.072H28.342c-4.142,0-7.5,3.357-7.5,7.5s3.358,7.5,7.5,7.5H78.2
		c7.454,0,13.518,6.132,13.518,13.67s-6.064,13.67-13.518,13.67H28.52C12.794,43.412,0,56.274,0,72.082s12.794,28.669,28.52,28.669
		h17.197c4.142,0,7.5-3.357,7.5-7.5s-3.358-7.5-7.5-7.5H28.52c-7.455,0-13.52-6.132-13.52-13.669c0-7.538,6.065-13.67,13.52-13.67
		H78.2c15.725,0,28.518-12.861,28.518-28.67S93.925,1.072,78.2,1.072z"/>
	<path style="fill:#FFB98A;" d="M481.899,238.064h-12.701c-4.142,0-7.5,3.357-7.5,7.5s3.358,7.5,7.5,7.5h12.701
		c8.327,0,15.101,6.846,15.101,15.26c0,8.415-6.774,15.262-15.101,15.262h-24.024c-9.801,0-17.774,8.107-17.774,18.073v17.401
		c0,4.143,3.358,7.5,7.5,7.5s7.5-3.357,7.5-7.5v-17.401c0-1.666,1.271-3.073,2.774-3.073h24.024
		c16.598,0,30.101-13.575,30.101-30.262C512,251.639,498.497,238.064,481.899,238.064z"/>
</g>
<g>
</g>
<g>
</g>
<g>
</g>
<g>
</g>
<g>
</g>
<g>
</g>
<g>
</g>
<g>
</g>
<g>
</g>
<g>
</g>
<g>
</g>
<g>
</g>
<g>
</g>
<g>
</g>
<g>
</g>
</svg>
