<?xml version="1.0" encoding="iso-8859-1"?>
<!-- Generator: Adobe Illustrator 19.0.0, SVG Export Plug-In . SVG Version: 6.00 Build 0)  -->
<svg version="1.1" id="Capa_1" xmlns="http://www.w3.org/2000/svg" xmlns:xlink="http://www.w3.org/1999/xlink" x="0px" y="0px"
	 viewBox="0 0 512 512" style="enable-background:new 0 0 512 512;" xml:space="preserve">
<path style="fill:#B4732D;" d="M444.06,100.823v319.078C444.06,470.772,359.863,512,256,512c-21.284,0-41.743-1.731-60.812-4.925
	c-5.264-0.875-10.415-1.864-15.453-2.956c-65.86-14.33-111.795-46.647-111.795-84.217V100.823H444.06z"/>
<path style="fill:#8B5016;" d="M444.059,100.826v106.916c-4.553,5.586-7.174,12.66-7.174,20.044v27.984
	c0,8.695-3.387,16.879-9.528,23.042c-6.185,6.186-14.381,9.584-23.087,9.584c-11.538,0-21.688-6.019-27.495-15.08v32.715
	c0,12.648-4.919,24.519-13.859,33.448c-8.906,8.917-20.777,13.836-33.425,13.836c-26.074,0-47.284-21.21-47.284-47.284V271.74
	c0-4.265,0-15.58-26.285-24.286c-20-6.618-50.493-9.972-90.648-9.972c-6.829,0-14.092,0.089-21.565,0.278
	c-2.487,0.067-4.964,0.1-7.385,0.1c-27.717,0-50.671-4.187-68.383-12.459V100.826H444.059z"/>
<path style="fill:#DB9E67;" d="M444.059,100.826v85.296c-14.27,8.406-23.831,23.92-23.831,41.665v27.984
	c0,4.409-1.788,8.395-4.675,11.294c-2.887,2.887-6.874,4.675-11.282,4.675c-8.817,0-15.969-7.151-15.969-15.969v-19.177
	c0-3.898-1.577-7.418-4.131-9.961c-2.543-2.554-6.063-4.131-9.961-4.131c-7.784,0-14.092,6.308-14.092,14.092v69.438
	c0,8.462-3.431,16.124-8.973,21.654c-5.541,5.552-13.192,8.973-21.654,8.973c-16.912,0-30.627-13.704-30.627-30.627v-34.291
	c0-42.631-66.839-52.881-155.577-50.627c-38.445,0.978-61.531-6.163-75.346-14.569V100.826H444.059z"/>
<path style="fill:#8B5016;" d="M444.059,100.826v35.435c-10.905,13.559-27.007,25.752-47.761,35.913
	c-37.756,18.489-87.583,28.672-140.297,28.672c-52.725,0-102.552-10.183-140.308-28.672c-20.744-10.161-36.834-22.343-47.75-35.89
	v-35.458H444.059z"/>
<ellipse style="fill:#F9E8D4;" cx="256" cy="92.09" rx="188.06" ry="92.09"/>
<ellipse style="fill:#D8AD8F;" cx="256" cy="92.09" rx="117.29" ry="57.44"/>
<ellipse style="fill:#B4732D;" cx="256" cy="92.09" rx="57.12" ry="27.973"/>
<g>
	<path style="fill:#8B5016;" d="M270.783,99.82h-29.566c-4.267,0-7.726-3.459-7.726-7.726c0-4.268,3.459-7.726,7.726-7.726h29.566
		c4.267,0,7.726,3.459,7.726,7.726C278.509,96.362,275.05,99.82,270.783,99.82z"/>
	<path style="fill:#8B5016;" d="M324.25,468.654c-4.267,0-7.726-3.459-7.726-7.726V215.805c0-4.268,3.459-7.726,7.726-7.726
		s7.726,3.459,7.726,7.726v245.122C331.976,465.195,328.517,468.654,324.25,468.654z"/>
</g>
<g>
	<path style="fill:#DB9E67;" d="M392.447,367.143c-4.267,0-7.726-3.459-7.726-7.726v-51.268c0-4.268,3.459-7.726,7.726-7.726
		s7.726,3.459,7.726,7.726v51.268C400.173,363.684,396.714,367.143,392.447,367.143z"/>
	<path style="fill:#DB9E67;" d="M392.447,440.935c-4.267,0-7.726-3.459-7.726-7.726v-36.523c0-4.268,3.459-7.726,7.726-7.726
		s7.726,3.459,7.726,7.726v36.523C400.173,437.476,396.714,440.935,392.447,440.935z"/>
</g>
<path style="fill:#8B5016;" d="M294.453,393.949c-4.267,0-7.726-3.459-7.726-7.726v-25.759c0-4.268,3.459-7.726,7.726-7.726
	s7.726,3.459,7.726,7.726v25.759C302.18,390.49,298.72,393.949,294.453,393.949z"/>
<path style="fill:#DB9E67;" d="M195.188,222.766v284.309c-5.264-0.875-10.415-1.864-15.453-2.956V222.766
	c0-4.265,3.461-7.726,7.726-7.726C191.727,215.04,195.188,218.501,195.188,222.766z"/>
<g>
	<path style="fill:#8B5016;" d="M212.29,311.084c-4.267,0-7.726-3.459-7.726-7.726v-24.386c0-4.268,3.459-7.726,7.726-7.726
		s7.726,3.459,7.726,7.726v24.386C220.017,307.626,216.557,311.084,212.29,311.084z"/>
	<path style="fill:#8B5016;" d="M103.347,343.493c-4.267,0-7.726-3.459-7.726-7.726v-85.231c0-4.268,3.459-7.726,7.726-7.726
		s7.726,3.459,7.726,7.726v85.231C111.074,340.034,107.615,343.493,103.347,343.493z"/>
	<path style="fill:#8B5016;" d="M103.347,415.213c-4.267,0-7.726-3.459-7.726-7.726V366.6c0-4.268,3.459-7.726,7.726-7.726
		s7.726,3.459,7.726,7.726v40.886C111.074,411.754,107.615,415.213,103.347,415.213z"/>
	<path style="fill:#8B5016;" d="M165.845,465.979c-4.267,0-7.726-3.459-7.726-7.726V266.267c0-4.268,3.459-7.726,7.726-7.726
		s7.726,3.459,7.726,7.726v191.985C173.572,462.52,170.113,465.979,165.845,465.979z"/>
	<path style="fill:#8B5016;" d="M260.451,455.426c-4.267,0-7.726-3.459-7.726-7.726v-38.483c0-4.268,3.459-7.726,7.726-7.726
		s7.726,3.459,7.726,7.726V447.7C268.177,451.968,264.718,455.426,260.451,455.426z"/>
</g>
<g>
</g>
<g>
</g>
<g>
</g>
<g>
</g>
<g>
</g>
<g>
</g>
<g>
</g>
<g>
</g>
<g>
</g>
<g>
</g>
<g>
</g>
<g>
</g>
<g>
</g>
<g>
</g>
<g>
</g>
</svg>
