<?xml version="1.0" standalone="no"?>
<!DOCTYPE svg PUBLIC "-//W3C//DTD SVG 20010904//EN"
 "http://www.w3.org/TR/2001/REC-SVG-20010904/DTD/svg10.dtd">
<svg version="1.0" xmlns="http://www.w3.org/2000/svg"
 width="512.000000pt" height="512.000000pt" viewBox="0 0 512.000000 512.000000"
 preserveAspectRatio="xMidYMid meet">
<metadata>
Created by potrace 1.11, written by Peter Selinger 2001-2013
</metadata>
<g transform="translate(0.000000,512.000000) scale(0.100000,-0.100000)"
fill="#000000" stroke="none">
<path d="M2338 5115 c-2 -2 -46 -6 -98 -9 -52 -4 -104 -9 -115 -11 -11 -2 -42
-7 -70 -10 -27 -3 -72 -10 -100 -15 -27 -5 -61 -12 -75 -14 -235 -43 -455
-114 -643 -205 -265 -129 -448 -296 -522 -477 -22 -56 -28 -88 -31 -169 -2
-55 -4 -827 -4 -1715 1 -1749 -1 -1679 54 -1788 85 -167 266 -321 519 -441 58
-28 112 -51 120 -51 7 0 17 -4 23 -9 15 -14 259 -90 377 -117 71 -16 156 -33
202 -39 22 -2 74 -10 115 -15 215 -31 728 -34 900 -6 14 3 44 7 68 10 89 11
230 37 312 57 47 12 94 23 106 25 59 11 299 101 399 150 255 124 427 272 514
443 52 102 50 45 50 1781 1 888 -1 1656 -3 1705 -6 170 -63 287 -210 428 -206
199 -604 369 -1031 442 -16 2 -39 7 -50 9 -21 4 -167 23 -250 32 -53 6 -552
14 -557 9z"/>
</g>
</svg>
